<svg xml:space="preserve" style="enable-background:new 0 0 1200 1200;" viewBox="0 0 1200 1200" y="0px" x="0px" xmlns:xlink="http://www.w3.org/1999/xlink" xmlns="http://www.w3.org/2000/svg" id="图层_1" version="1.1">
<style type="text/css">
	.st0{fill:#D52061;}
	.st1{fill:#22286E;}
	.st2{fill:#DE5C3B;}
	.st3{fill:#F4D12C;}
	.st4{clip-path:url(#SVGID_2_);}
	.st5{fill:#DD4D2D;}
	.st6{fill:#DE4E2D;}
	.st7{fill:#DE4F2E;}
	.st8{fill:#DF502E;}
	.st9{fill:#E0512E;}
	.st10{fill:#E0522F;}
	.st11{fill:#E1532F;}
	.st12{fill:#E2542F;}
	.st13{fill:#E25530;}
	.st14{fill:#E35630;}
	.st15{fill:#E45831;}
	.st16{fill:#E45931;}
	.st17{fill:#E55A31;}
	.st18{fill:#E55B32;}
	.st19{fill:#E65C32;}
	.st20{fill:#E75D32;}
	.st21{fill:#E75E33;}
	.st22{fill:#E85F33;}
	.st23{fill:#E96033;}
	.st24{fill:#E96134;}
	.st25{fill:#EA6234;}
	.st26{fill:#E58456;}
	.st27{fill:#73C0D7;}
	.st28{fill:#FFFFFF;}
	.st29{opacity:0.33;}
	.st30{fill:#D9353E;}
	.st31{fill:#1E7CB9;}
	.st32{fill:#8064A0;}
	.st33{fill:#7C7C78;}
	.st34{fill:#9AA2CC;}
	.st35{fill:#202020;}
	.st36{fill:#EAE9E9;}
</style>
<g>
	<g>
		<g>
			<g>
				<g>
					<path d="M813.5,1001.9c-2.2,0-4.3-1.2-5.4-3.3c-6.2-12.3-18.6-20-32.4-20c-5.3,0-10.4,1.1-15.3,3.4
						c-0.9,0.4-1.8,0.9-2.8,1.5c-1,0.6-2,0.9-3.1,0.9c-0.6,0-1.2-0.1-1.7-0.3c-1.6-0.5-3-1.7-3.7-3.2l-64.2-138.1
						c-0.7-1.6-0.7-3.4,0-4.9c0.7-1.6,2-2.8,3.7-3.3c0.9-0.3,1.9-0.7,2.9-1.1c14-6.6,22.3-21.4,20.6-36.8c-0.4-3.9-1.5-7.7-3.2-11.4
						c-1.2-2.5-2.6-4.9-4.2-6.9c-1.1-1.4-1.5-3.3-1.1-5.1c0.4-1.8,1.6-3.3,3.3-4l295.4-137.4c0.8-0.4,1.7-0.6,2.5-0.6
						c0.9,0,1.8,0.2,2.7,0.6c1.6,0.8,2.8,2.3,3.2,4.1c0.6,2.7,1.5,5.4,2.6,7.7c5.9,12.7,18.9,21,32.9,21c5.3,0,10.4-1.1,15.3-3.4
						c1.1-0.5,2.1-1.1,3-1.6c0.9-0.5,1.9-0.8,2.9-0.8c0.6,0,1.2,0.1,1.8,0.3c1.6,0.5,2.9,1.7,3.6,3.2l64.3,138.1
						c0.7,1.6,0.7,3.3,0.1,4.9c-0.7,1.6-2,2.8-3.6,3.3c-1.1,0.4-2,0.7-2.7,1.1c-18.1,8.4-26.1,29.1-18.3,47.2c1.3,3,0,6.4-3,7.8
						l-9.8,4.5l-31.8,14.8l-14.3,6.6L816,1001.3C815.2,1001.7,814.3,1001.9,813.5,1001.9z" class="st0"></path>
				</g>
			</g>
			<g>
				<g>
					<path d="M1004.9,637.2c0.6,3,1.6,6.1,3,9c7.2,15.4,22.5,24.4,38.4,24.4c6,0,12-1.3,17.8-4c1.2-0.5,2.3-1.2,3.4-1.8
						l64.3,138.1c-1.2,0.4-2.4,0.8-3.6,1.4c-20.8,9.7-30,34-21.1,54.9l-9.8,4.5l-31.8,14.9l-14.2,6.6L813.5,995.9
						c-7.4-14.7-22.2-23.3-37.7-23.3c-6,0-12,1.3-17.8,3.9c-1.2,0.5-2.3,1.2-3.4,1.8l-64.2-138.1c1.1-0.3,2.4-0.9,3.5-1.4
						c16.8-7.9,26.1-25.5,24.2-43c-0.5-4.5-1.7-9-3.7-13.3c-1.3-2.9-3-5.6-4.9-8.1l60.3-28L1004.9,637.2 M1004.9,625.3
						c-1.7,0-3.4,0.4-5,1.1L764.7,735.7l-60.3,28c-3.3,1.5-5.7,4.5-6.6,8c-0.9,3.5,0,7.3,2.2,10.2c1.3,1.7,2.5,3.6,3.5,5.8
						c1.4,3.1,2.3,6.3,2.6,9.5c1.4,12.9-5.4,25.2-17.1,30.8c-0.8,0.4-1.7,0.7-2.2,0.9c-3.3,1-6,3.4-7.4,6.6
						c-1.4,3.2-1.4,6.8,0.1,9.9l64.2,138.1c1.4,3.1,4.1,5.4,7.4,6.4c1.1,0.3,2.3,0.5,3.4,0.5c2.2,0,4.4-0.6,6.3-1.8
						c0.8-0.5,1.5-0.9,2.2-1.2c4.1-1.9,8.4-2.8,12.8-2.8c11.5,0,21.9,6.4,27.1,16.7c2.1,4.2,6.3,6.6,10.7,6.6c1.7,0,3.4-0.4,5-1.1
						l237.8-110.6l14.2-6.6l31.9-14.9l9.7-4.5c5.9-2.7,8.5-9.6,6-15.6c-6.5-15.1,0.1-32.4,15.1-39.3c0.1-0.1,0.3-0.1,0.4-0.2
						c0.3-0.1,0.8-0.4,1.8-0.7c3.3-1.1,5.9-3.5,7.3-6.6c1.4-3.1,1.3-6.7-0.1-9.8l-64.3-138.1c-1.4-3-4-5.3-7.2-6.3
						c-1.2-0.4-2.4-0.6-3.6-0.6c-2,0-4.1,0.5-5.9,1.6c-0.9,0.5-1.7,1-2.5,1.3c-4.1,1.9-8.4,2.9-12.8,2.9c-11.8,0-22.6-6.9-27.5-17.5
						c-0.9-1.9-1.6-4.2-2.1-6.5c-0.8-3.5-3.1-6.6-6.4-8.2C1008.6,625.7,1006.7,625.3,1004.9,625.3L1004.9,625.3z" class="st1"></path>
				</g>
			</g>
		</g>
	</g>
	<g>
		<g>
			<path d="M1036.4,696.3l50.3,108.1c-0.9,0.3-1.9,0.7-2.8,1.1c-16.6,7.7-24.2,27-17.2,43.3L831.5,958.2
				c-8-15.9-27.6-22.5-44.2-14.8c-0.9,0.4-1.9,0.9-2.7,1.4l-50.3-108.1c0.9-0.3,1.9-0.7,2.8-1.1c17-7.9,24.5-27.7,16.8-44.3
				c-1.1-2.3-2.4-4.4-3.9-6.3l236.6-110c0.5,2.3,1.3,4.7,2.3,7c7.7,16.6,27.7,23.6,44.7,15.7
				C1034.7,697.3,1035.6,696.8,1036.4,696.3z" class="st2"></path>
			<path d="M831.5,964.2c-2.2,0-4.3-1.2-5.3-3.3c-6.6-13.2-22.6-18.5-36.3-12.1c-0.7,0.3-1.4,0.7-2,1.1
				c-1.5,0.9-3.2,1.1-4.9,0.7c-1.6-0.5-3-1.7-3.7-3.2l-50.3-108.1c-0.7-1.6-0.7-3.3-0.1-4.9c0.7-1.6,2-2.8,3.6-3.3
				c0.7-0.2,1.4-0.5,2.2-0.9c6.8-3.2,11.9-8.7,14.6-15.6c2.6-6.9,2.3-14.2-0.7-20.8c-0.8-1.8-1.9-3.6-3.1-5.1
				c-1.1-1.4-1.5-3.3-1.1-5.1s1.6-3.3,3.3-4l236.6-110c1.7-0.8,3.6-0.7,5.2,0.1c1.6,0.8,2.8,2.3,3.2,4.1c0.4,1.9,1,3.9,1.9,5.7
				c6.3,13.6,22.8,19.3,36.8,12.8c0.7-0.3,1.4-0.7,2-1.1c1.5-0.9,3.2-1.1,4.9-0.7c1.6,0.5,3,1.7,3.7,3.2l50.3,108.1
				c0.7,1.6,0.7,3.3,0.1,4.9c-0.7,1.6-2,2.8-3.6,3.3c-0.7,0.2-1.4,0.5-2.2,0.9c-13.7,6.4-20,22-14.2,35.6c1.3,3,0,6.4-3,7.8
				L834,963.6C833.2,964,832.4,964.2,831.5,964.2z M802,934.2c12.5,0,24.5,5.9,31.9,16.4l225.4-104.8c-4.5-17.2,3.3-35.4,19.4-44.3
				l-45.2-97.1c-19.3,7.4-41.3-1.1-50-19.8c-0.2-0.4-0.4-0.8-0.5-1.2L758.8,787.6c0.2,0.4,0.4,0.8,0.6,1.2c4.4,9.5,4.8,20.2,1,30.1
				c-3.4,8.9-9.7,16.3-18.1,20.9l45.2,97.1C792.3,935,797.2,934.2,802,934.2z" class="st1"></path>
		</g>
	</g>
	<g>
		<g>
			<g>
				<g>
					<polygon points="800.5,778.6 811.7,787.6 825.5,783.5 820.4,797 828.6,808.8 814.2,808.1 805.5,819.6 801.7,805.7 
						788.1,800.9 800.2,793" class="st3"></polygon>
				</g>
			</g>
		</g>
		<g>
			<g>
				<g>
					<polygon points="851.1,753.8 862.4,762.9 876.2,758.7 871.1,772.2 879.3,784 864.9,783.3 856.1,794.8 852.4,780.9 
						838.8,776.1 850.8,768.2" class="st3"></polygon>
				</g>
			</g>
		</g>
		<g>
			<g>
				<g>
					<polygon points="897.7,732.2 909,741.2 922.8,737.1 917.6,750.5 925.8,762.4 911.5,761.7 902.7,773.1 898.9,759.2 
						885.3,754.5 897.4,746.6" class="st3"></polygon>
				</g>
			</g>
		</g>
		<g>
			<g>
				<g>
					<polygon points="944.3,710.5 955.6,719.5 969.4,715.4 964.2,728.9 972.4,740.7 958,740 949.3,751.5 945.5,737.6 
						931.9,732.8 944,724.9" class="st3"></polygon>
				</g>
			</g>
		</g>
	</g>
	<g>
		<g>
			<path d="M826,863.9c-3.7,1.8-5.9,4.5-6.7,8.1c-0.8,3.6-0.1,7.7,2.1,12.3c2.3,4.8,5.1,7.9,8.4,9.4
				c3.2,1.5,6.7,1.3,10.6-0.6c1.7-0.8,3.2-1.8,4.6-2.8c1.4-1.1,2.8-2.3,4.2-3.6l2.7,5.5c-2.5,2.7-5.7,4.9-9.6,6.8
				c-5.7,2.8-10.9,3.2-15.7,1.3c-4.8-2-8.7-6.2-11.9-12.6c-2-4.1-3-8-3-11.7c0-3.8,1-7.2,3-10.2c2-3,4.9-5.4,8.7-7.3
				c4-2,8.1-2.9,12.3-2.9l0.3,6.4c-1.6,0-3.3,0.2-5,0.4C829.3,862.6,827.6,863.1,826,863.9z" class="st1"></path>
		</g>
		<g>
			<path d="M860.8,889.2l-19.1-39l6.4-3.1l19.1,39L860.8,889.2z" class="st1"></path>
		</g>
		<g>
			<path d="M910,865.1l-7.8,3.8l-34.4-21.7l-0.2,0.1l1,1.7c1.9,3.2,3.5,6.2,4.8,8.9l9.9,20.3l-5.8,2.8l-19.1-39l7.7-3.8
				l34.3,21.6l0.2-0.1c-0.2-0.4-1-1.8-2.4-4.4c-1.4-2.5-2.4-4.5-3.1-5.9l-10-20.5l5.8-2.9L910,865.1z" class="st1"></path>
		</g>
		<g>
			<path d="M942.4,849.2L920.3,860l-19.1-39l22.1-10.8l2.6,5.4l-15.7,7.7l5.2,10.6l14.7-7.2l2.6,5.3l-14.7,7.2l6,12.3
				l15.7-7.7L942.4,849.2z" class="st1"></path>
		</g>
		<g>
			<path d="M967.7,836.8l-27.3-27.1l-0.2,0.1c2.7,4.7,5.1,9.2,7.1,13.4l9.3,19l-5.8,2.8l-19.1-39l9-4.4l26.1,25.7
				l0.2-0.1l-4-36.5l9-4.4l19.1,39l-6.1,3l-9.5-19.3c-0.9-1.9-2.1-4.5-3.6-7.7c-1.4-3.2-2.3-5.1-2.5-5.8l-0.2,0.1l4.2,38.3
				L967.7,836.8z" class="st1"></path>
		</g>
		<g>
			<path d="M1025.5,808.5l-9.2-8.9l-14.9,7.3l1.5,12.7l-6.7,3.3l-4.6-46.4l6.9-3.4l33.8,32L1025.5,808.5z M1011.9,794.9
				l-8.9-8.8c-0.6-0.6-1.5-1.5-2.8-2.8c-1.2-1.3-2.1-2.3-2.6-2.9c0.6,2.4,1.1,5.2,1.4,8.2l1.5,11.9L1011.9,794.9z" class="st1"></path>
		</g>
	</g>
	<g>
		<g>
			<g>
				<g>
					<defs>
						<path d="M983.5,1107c-0.7,0-1.4-0.1-2.1-0.4l-303.8-112c-3-1.1-4.6-4.4-3.6-7.5c6.2-18.7-3.4-38.7-21.8-45.5
							c-1-0.4-2.1-0.7-3-0.9c-1.7-0.4-3.1-1.5-3.9-3c-0.8-1.5-0.9-3.3-0.3-4.9l52.7-143c0.6-1.6,1.8-2.9,3.4-3.5
							c0.7-0.3,1.4-0.4,2.2-0.4c0.9,0,1.9,0.2,2.7,0.6c1,0.5,2,1,2.9,1.3c3.2,1.2,6.4,1.9,9.7,2.1c1,0.1,2,0.1,2.9,0.1
							c15.1,0,28.8-9.6,34-23.8c1-2.6,1.6-5.3,1.9-7.8c0.2-1.8,1.3-3.4,2.8-4.4c1-0.6,2-0.9,3.1-0.9c0.7,0,1.4,0.1,2.1,0.4
							l305.7,112.7c1.7,0.6,3.1,2,3.6,3.8c0.6,1.7,0.3,3.6-0.7,5.2c-1.2,1.8-2.2,3.7-2.9,5.6c-0.2,0.5-0.4,0.9-0.7,1.3c0,0,0,0,0,0
							c0,0,0,0.1-0.1,0.3c-1,2.8-1.7,5.4-1.9,8c0,0.3-0.1,0.6-0.1,0.8l0,0.3l-0.1,0.7c-1.3,16.1,8.4,31.3,23.6,36.9
							c0.9,0.3,2,0.6,3,0.9c1.7,0.4,3.1,1.5,3.9,3c0.8,1.5,0.9,3.3,0.3,4.9l-52.7,143c-0.6,1.6-1.8,2.9-3.4,3.5
							c-0.7,0.3-1.4,0.4-2.2,0.4c-0.9,0-1.9-0.2-2.7-0.6c-0.9-0.4-1.9-0.9-2.9-1.2c-4.1-1.5-8.3-2.3-12.5-2.3
							c-14.9,0-28.1,8.9-33.6,22.7C988.1,1105.5,985.8,1107,983.5,1107z" id="SVGID_1_"></path>
					</defs>
					<clipPath id="SVGID_2_">
						<use style="overflow:visible;" xlink:href="#SVGID_1_"></use>
					</clipPath>
					<g class="st4">
						<polygon points="713.5,753.2 644.3,941 644.3,753.2" class="st5"></polygon>
					</g>
					<g class="st4">
						<polygon points="735.1,753.2 647.8,990 644.3,988.7 644.3,941 713.5,753.2" class="st5"></polygon>
					</g>
					<g class="st4">
						<polygon points="756.7,753.2 666.8,997 647.8,990 735.1,753.2" class="st6"></polygon>
					</g>
					<g class="st4">
						<polygon points="778.3,753.2 685.9,1004 666.8,997 756.7,753.2" class="st7"></polygon>
					</g>
					<g class="st4">
						<polygon points="781.7,753.2 797.7,759.1 704.9,1011.1 685.9,1004 778.3,753.2" class="st8"></polygon>
					</g>
					<g class="st4">
						
							<rect height="20.3" width="268.5" class="st9" transform="matrix(0.3458 -0.9383 0.9383 0.3458 -336.047 1295.1801)" y="878.4" x="626.5"></rect>
					</g>
					<g class="st4">
						
							<rect height="20.3" width="268.5" class="st10" transform="matrix(0.3458 -0.9383 0.9383 0.3458 -330.1817 1317.6108)" y="885.5" x="645.6"></rect>
					</g>
					<g class="st4">
						
							<rect height="20.3" width="268.5" class="st11" transform="matrix(0.3458 -0.9383 0.9383 0.3458 -324.3164 1340.0419)" y="892.5" x="664.6"></rect>
					</g>
					<g class="st4">
						
							<rect height="20.3" width="268.5" class="st12" transform="matrix(0.3458 -0.9383 0.9383 0.3458 -318.4511 1362.4725)" y="899.5" x="683.6"></rect>
					</g>
					<g class="st4">
						
							<rect height="20.3" width="268.5" class="st13" transform="matrix(0.3458 -0.9383 0.9383 0.3458 -312.5858 1384.9034)" y="906.5" x="702.6"></rect>
					</g>
					<g class="st4">
						
							<rect height="20.3" width="268.5" class="st14" transform="matrix(0.3458 -0.9383 0.9383 0.3458 -306.7205 1407.3344)" y="913.5" x="721.6"></rect>
					</g>
					<g class="st4">
						
							<rect height="20.3" width="268.5" class="st15" transform="matrix(0.3458 -0.9383 0.9383 0.3458 -300.8552 1429.7651)" y="920.5" x="740.7"></rect>
					</g>
					<g class="st4">
						
							<rect height="20.3" width="268.5" class="st16" transform="matrix(0.3458 -0.9383 0.9383 0.3458 -294.9899 1452.196)" y="927.5" x="759.7"></rect>
					</g>
					<g class="st4">
						
							<rect height="20.3" width="268.5" class="st17" transform="matrix(0.3458 -0.9383 0.9383 0.3458 -289.1246 1474.6268)" y="934.5" x="778.7"></rect>
					</g>
					<g class="st4">
						
							<rect height="20.3" width="268.5" class="st18" transform="matrix(0.3458 -0.9383 0.9383 0.3458 -283.2594 1497.0576)" y="941.5" x="797.7"></rect>
					</g>
					<g class="st4">
						
							<rect height="20.3" width="268.5" class="st19" transform="matrix(0.3458 -0.9383 0.9383 0.3458 -277.394 1519.4886)" y="948.5" x="816.7"></rect>
					</g>
					<g class="st4">
						
							<rect height="20.3" width="268.5" class="st20" transform="matrix(0.3458 -0.9383 0.9383 0.3458 -271.5288 1541.9193)" y="955.6" x="835.8"></rect>
					</g>
					<g class="st4">
						
							<rect height="20.3" width="268.5" class="st21" transform="matrix(0.3458 -0.9383 0.9383 0.3458 -265.6635 1564.3502)" y="962.6" x="854.8"></rect>
					</g>
					<g class="st4">
						<polygon points="1045,850.2 1064,857.2 972,1107 965.1,1107 952.1,1102.2" class="st22"></polygon>
					</g>
					<g class="st4">
						<polygon points="1064,857.2 1083,864.2 993.6,1107 972,1107" class="st23"></polygon>
					</g>
					<g class="st4">
						<polygon points="1083,864.2 1099.7,870.4 1099.7,877.6 1015.2,1107 993.6,1107" class="st24"></polygon>
					</g>
					<g class="st4">
						<polygon points="1099.7,936.2 1036.8,1107 1015.2,1107 1099.7,877.6" class="st25"></polygon>
					</g>
					<g class="st4">
						<polygon points="1036.8,1107 1099.7,936.2 1099.7,1107" class="st25"></polygon>
					</g>
				</g>
			</g>
			<g>
				<g>
					<path d="M763.3,759.2L1069,871.9c-1.4,2.1-2.6,4.3-3.5,6.8c-0.3,0.5-0.6,1.1-0.7,1.6c-1.1,3.1-1.9,6.3-2.3,9.4
						c-0.2,0.6-0.2,1.2-0.2,1.8c-1.5,18.5,9.3,36.5,27.5,43.2c1.2,0.4,2.5,0.8,3.7,1.1l-52.7,143c-1.1-0.6-2.3-1.1-3.5-1.5
						c-4.8-1.8-9.8-2.6-14.6-2.6c-16.8,0-32.6,10.1-39.2,26.4L679.6,989c7.2-21.6-4-45.1-25.5-53c-1.2-0.4-2.5-0.8-3.7-1.1l52.7-143
						c1.1,0.6,2.3,1.2,3.5,1.6c3.7,1.4,7.6,2.2,11.4,2.4c1.1,0.1,2.2,0.1,3.3,0.1c17.2,0,33.3-10.6,39.6-27.7
						C762.1,765.3,762.9,762.2,763.3,759.2 M763.3,747.2c-2.2,0-4.3,0.6-6.2,1.8c-3.1,1.9-5.2,5.1-5.6,8.8c-0.2,2.1-0.8,4.3-1.6,6.5
						c-4.4,11.9-15.8,19.9-28.4,19.9c-0.8,0-1.6,0-2.4-0.1c-0.1,0-0.1,0-0.2,0c-2.7-0.2-5.4-0.8-8-1.7c-0.7-0.2-1.7-0.8-2.2-1
						c-1.7-0.9-3.6-1.3-5.4-1.3c-1.5,0-3,0.3-4.4,0.8c-3.2,1.2-5.7,3.8-6.9,7l-52.7,143c-1.2,3.2-0.9,6.8,0.7,9.8
						c1.6,3,4.4,5.2,7.8,6c0.7,0.2,1.5,0.4,2.3,0.7c15.4,5.7,23.5,22.4,18.2,38c-2,6.1,1.1,12.8,7.2,15l303.8,112
						c1.4,0.5,2.8,0.7,4.1,0.7c4.7,0,9.2-2.8,11.1-7.5c4.7-11.5,15.7-19,28.1-19c3.6,0,7.1,0.6,10.5,1.9c0.8,0.3,1.6,0.6,2.2,1
						c1.7,0.9,3.6,1.3,5.4,1.3c1.5,0,3-0.3,4.4-0.8c3.2-1.2,5.7-3.8,6.9-7l52.7-143c1.2-3.2,0.9-6.8-0.7-9.8c-1.6-3-4.4-5.2-7.8-6
						c-0.5-0.1-1.7-0.4-2.4-0.7c-12.7-4.7-20.8-17.4-19.7-30.9c0-0.2,0-0.5,0.1-0.7c0.1-0.3,0.1-0.6,0.1-1c0.2-2,0.7-4.2,1.6-6.4
						c0.3-0.5,0.6-1.1,0.8-1.7c0.5-1.4,1.3-2.9,2.2-4.4c2-3.1,2.5-6.9,1.4-10.3c-1.1-3.5-3.8-6.2-7.2-7.5L767.4,747.9
						C766.1,747.4,764.7,747.2,763.3,747.2L763.3,747.2z" class="st1"></path>
				</g>
			</g>
		</g>
	</g>
	<g>
		<g>
			<path d="M1049.3,935.9l-41.2,111.9c-0.9-0.4-1.8-0.9-2.8-1.2c-17.2-6.3-36.2,1.9-42.8,18.4l-243.3-89.7
				c5.6-16.9-3.4-35.4-20.7-41.8c-1-0.4-2-0.7-2.9-0.9l41.2-111.9c0.9,0.4,1.8,0.9,2.8,1.2c17.6,6.5,36.9-2.2,43.3-19.4
				c0.9-2.3,1.4-4.8,1.7-7.2l244.8,90.2c-1.3,2-2.5,4.2-3.3,6.6c-6.3,17.2,2.8,36.3,20.3,42.8
				C1047.3,935.3,1048.3,935.6,1049.3,935.9z" class="st26"></path>
			<path d="M962.4,1070.9c-0.7,0-1.4-0.1-2.1-0.4L717,980.8c-3-1.1-4.6-4.4-3.6-7.5c4.7-14-2.8-29-17.1-34.3
				c-0.7-0.3-1.5-0.5-2.2-0.7c-1.7-0.4-3.1-1.5-3.9-3c-0.8-1.5-0.9-3.3-0.3-4.9l41.2-111.9c0.6-1.6,1.8-2.9,3.4-3.5
				c1.6-0.6,3.4-0.5,4.9,0.3c0.7,0.3,1.4,0.7,2.1,0.9c14.4,5.3,30.4-1.8,35.6-15.8c0.7-1.8,1.2-3.9,1.4-5.8c0.2-1.8,1.3-3.4,2.8-4.4
				c1.6-1,3.5-1.1,5.2-0.5l244.8,90.2c1.7,0.6,3.1,2,3.6,3.8c0.6,1.7,0.3,3.6-0.7,5.2c-1.1,1.6-2,3.5-2.7,5.3
				c-2.5,6.8-2.1,14.2,1,20.8c3.2,6.7,8.8,11.8,15.8,14.3c0.7,0.3,1.5,0.5,2.2,0.7c1.7,0.4,3.1,1.5,3.9,3c0.8,1.5,0.9,3.3,0.3,4.9
				l-41.2,111.9c-0.6,1.6-1.8,2.9-3.4,3.5c-1.6,0.6-3.4,0.5-4.9-0.3c-0.7-0.3-1.4-0.7-2.1-0.9c-14.2-5.2-29.7,1.3-35.2,15
				C967,1069.5,964.8,1070.9,962.4,1070.9z M726.2,971.4l233.3,86c9-15.3,27.5-22.6,45.1-17.4l37-100.5
				c-8.7-3.9-15.6-10.7-19.7-19.3c-4.5-9.6-5-20.2-1.4-30.1c0.2-0.4,0.3-0.8,0.5-1.3l-232-85.5c-0.1,0.4-0.3,0.8-0.4,1.3
				c-7.1,19.3-28.3,29.6-48.2,23.8l-37,100.5C719.9,936.4,729.2,954,726.2,971.4z" class="st1"></path>
		</g>
	</g>
	<g>
		<g>
			<g>
				<g>
					<polygon points="829.7,827.3 831.2,841.6 843.8,848.5 830.7,854.3 828.1,868.5 818.4,857.8 804.1,859.7 
						811.3,847.2 805.1,834.2 819.2,837.2" class="st3"></polygon>
				</g>
			</g>
		</g>
		<g>
			<g>
				<g>
					<polygon points="877.9,845 879.4,859.4 892,866.2 878.9,872.1 876.3,886.3 866.6,875.6 852.3,877.4 859.5,865 
						853.3,852 867.4,854.9" class="st3"></polygon>
				</g>
			</g>
		</g>
		<g>
			<g>
				<g>
					<polygon points="926.1,862.8 927.6,877.1 940.3,884 927.1,889.9 924.5,904 914.8,893.3 900.6,895.2 907.7,882.7 
						901.5,869.7 915.6,872.7" class="st3"></polygon>
				</g>
			</g>
		</g>
		<g>
			<g>
				<g>
					<polygon points="974.3,880.6 975.8,894.9 988.5,901.8 975.3,907.6 972.7,921.8 963,911.1 948.8,913 956,900.5 
						949.8,887.5 963.8,890.5" class="st3"></polygon>
				</g>
			</g>
		</g>
	</g>
	<g>
		<g>
			<path d="M785.3,900.4c-3.8-1.4-7.3-1.2-10.5,0.7c-3.2,1.9-5.7,5.3-7.4,10c-1.8,5-2.2,9.2-1,12.5
				c1.2,3.3,3.7,5.8,7.7,7.2c1.7,0.6,3.5,1.1,5.2,1.3c1.7,0.3,3.6,0.4,5.5,0.5l-2.1,5.7c-3.6,0-7.5-0.7-11.6-2.2
				c-6-2.2-9.9-5.7-11.8-10.5c-1.9-4.8-1.6-10.6,0.9-17.3c1.6-4.2,3.7-7.7,6.4-10.3c2.7-2.6,5.9-4.2,9.4-4.8
				c3.6-0.6,7.3-0.2,11.3,1.3c4.2,1.5,7.7,3.8,10.6,6.9l-4.4,4.7c-1.1-1.2-2.4-2.3-3.7-3.3C788.5,901.9,787,901.1,785.3,900.4z" class="st1"></path>
		</g>
		<g>
			<path d="M791,943l15-40.8l6.7,2.5l-15,40.8L791,943z" class="st1"></path>
		</g>
		<g>
			<path d="M842.4,962l-8.2-3l-8.1-39.9l-0.2-0.1l-0.5,1.9c-1,3.6-2.1,6.8-3.1,9.6l-7.8,21.2l-6.1-2.2l15-40.8l8.1,3
				l8.1,39.7l0.2,0.1c0.1-0.4,0.6-2,1.5-4.8c0.9-2.7,1.6-4.8,2.2-6.4l7.9-21.4l6.1,2.3L842.4,962z" class="st1"></path>
		</g>
		<g>
			<path d="M876.3,974.5l-23.1-8.5l15-40.8l23.1,8.5l-2.1,5.6l-16.4-6l-4.1,11.1l15.4,5.7l-2.1,5.6l-15.4-5.7l-4.7,12.8
				l16.4,6L876.3,974.5z" class="st1"></path>
		</g>
		<g>
			<path d="M902.7,984.2l0.7-38.4l-0.2-0.1c-1.5,5.2-3.1,10-4.8,14.4l-7.3,19.8l-6.1-2.2l15-40.8l9.4,3.5l-0.6,36.6
				l0.2,0.1l23.6-28.1l9.4,3.5l-15,40.8l-6.4-2.4l7.4-20.2c0.7-2,1.8-4.6,3.1-7.9c1.3-3.2,2.1-5.2,2.4-5.8l-0.2-0.1l-24.8,29.5
				L902.7,984.2z" class="st1"></path>
		</g>
		<g>
			<path d="M963.1,1006.5l0.1-12.8l-15.6-5.7l-8.2,9.9l-7-2.6l30.4-35.3l7.3,2.7l0.2,46.6L963.1,1006.5z M963.6,987.3
				l0.3-12.5c0-0.8,0-2.2,0.1-3.9c0.1-1.8,0.2-3.1,0.3-3.9c-1.3,2.1-3,4.3-5,6.7l-7.6,9.3L963.6,987.3z" class="st1"></path>
		</g>
	</g>
</g>
<g>
	<g>
		<g>
			<g>
				<g>
					<g>
						<g>
							<path d="M1022.9,550.7c-4.8-0.1-9.5-1.6-13.4-4.4c-1.1-0.7-6.4-2.2-10.3-3.4c-14.8-4.4-26.5-7.8-26.2-16.3
								c0-0.2,0-0.4,0.1-0.6l33.7-238.4l-38.8,8.9c-1.7,0.4-3.5,0.6-5.3,0.6c-11.1,0-20.4-7.6-22.7-18.5
								c-2.6-12.7,5.5-25.4,18.2-28.3l69.2-15.9c1.8-0.4,3.6-0.6,5.4-0.6c5.5,0,10.5,1.9,14.7,5.4c5.6,4.6,8.6,11.4,8.4,18.8
								l-8.7,269.4c-0.4,12.8-11.1,23.3-23.9,23.3C1023.2,550.7,1023,550.7,1022.9,550.7z" class="st27"></path>
						</g>
					</g>
					<g>
						<g>
							<path d="M1032.8,239.8c3.9,0,7.7,1.3,10.9,4c4.1,3.4,6.4,8.6,6.3,14l-8.7,269.4c-0.3,9.7-8.3,17.5-17.9,17.5
								c-0.1,0-0.1,0-0.2,0c-3.7,0-7.1-1.3-9.9-3.3c-4.5-3.3-34.2-8.6-34-14.6l34.9-247l-47.2,10.8c-1.3,0.3-2.7,0.5-4,0.5
								c-8,0-15.2-5.6-16.9-13.8c-2-9.5,4.1-19,13.6-21.2l69.2-15.9C1030.1,240,1031.4,239.8,1032.8,239.8 M1032.8,227.8
								c-2.3,0-4.5,0.3-6.7,0.8l-69.1,15.9c-15.8,3.6-26,19.5-22.7,35.3c2.8,13.5,14.8,23.3,28.6,23.3c2.2,0,4.5-0.3,6.6-0.8l30.3-7
								l-32.4,229.7c-0.1,0.4-0.1,0.9-0.1,1.3c-0.4,13.1,13.9,17.3,30.5,22.2c3.2,0.9,7.5,2.2,9,2.9c4.8,3.3,10.4,5.1,16.2,5.2
								l0.4,0c16,0,29.4-13,29.9-29.1l8.7-269.4c0.3-9.2-3.6-17.8-10.6-23.6C1046.1,230.2,1039.6,227.8,1032.8,227.8L1032.8,227.8z" class="st1"></path>
						</g>
					</g>
				</g>
			</g>
		</g>
		<g>
			<g>
				<path d="M957.6,280.4c-2-9.5,4.1-19,13.6-21.2l69.2-15.9c0.7-0.2,1.4-0.3,2.1-0.4c-4-2.9-9-3.7-13.8-2.6
					l-69.2,15.9c-9.5,2.2-15.6,11.7-13.6,21.2c1.8,8.8,10,14.6,18.7,13.7C961.1,288.6,958.5,284.9,957.6,280.4z" class="st28"></path>
			</g>
			<g>
				<path d="M1024.8,544.4c-4.5-3.3-34.2-8.6-34-14.6l34.9-247l-12.5,2.9l-34,241.1c-0.2,6,29.5,11.4,34,14.6
					c2.8,2,6.2,3.2,9.9,3.3c0.7,0,1.4,0,2.1-0.1C1025,544.5,1024.9,544.5,1024.8,544.4z" class="st28"></path>
			</g>
		</g>
		<g>
			<g>
				<g>
					<g>
						<g>
							<path d="M572.7,238c-6.6,0-12.2-7.7-20.9-20.4c-2.3-3.3-5.4-7.9-6.5-8.8c-3.8-2.8-6.7-6.7-8.2-11.3
								c-4.1-12.3,2.4-25.8,14.7-30.2l253.6-91.4c2.6-0.9,5.3-1.4,8-1.4c4.4,0,8.8,1.3,12.5,3.6c6.1,3.8,10,10.2,10.7,17.6l6.2,70.7
								c1.1,12.9-8.4,24.6-21.3,26c-0.9,0.1-1.7,0.1-2.6,0.1c-12.1,0-22.1-9.1-23.1-21.3l-3.5-39.6L576,237.3
								c-0.2,0.1-0.4,0.2-0.6,0.3C574.6,237.8,573.7,238,572.7,238C572.7,238,572.7,238,572.7,238z" class="st27"></path>
						</g>
					</g>
					<g>
						<g>
							<path d="M813.5,80.5c3.3,0,6.5,0.9,9.3,2.7c4.7,2.9,7.4,7.7,7.9,13.1l6.2,70.7c0.9,9.7-6.3,18.5-16,19.5
								c-0.6,0.1-1.3,0.1-1.9,0.1c-8.9,0-16.4-6.7-17.2-15.8l-4.3-48.3L573.4,231.9c-0.2,0.1-0.4,0.1-0.7,0.1
								c-6.1,0-19.4-24.8-23.7-28c-2.8-2-5-4.9-6.2-8.4c-3.1-9.2,1.8-19.4,11-22.7l253.6-91.4C809.5,80.9,811.5,80.5,813.5,80.5
								 M813.5,68.5c-3.4,0-6.8,0.6-10,1.8l-253.6,91.4c-15.3,5.5-23.5,22.4-18.3,37.8c1.9,5.6,5.3,10.3,9.9,13.9
								c1.1,1.3,3.6,4.9,5.5,7.7c9.7,14.2,16.2,23,25.8,23c1.6,0,3.2-0.3,4.7-0.8c0.4-0.1,0.8-0.3,1.2-0.5l208.5-101.7l2.7,30.9
								c1.3,15.2,13.8,26.7,29.1,26.7c1.1,0,2.2-0.1,3.2-0.2c16.1-1.8,28-16.3,26.6-32.5l-6.2-70.7c-0.8-9.3-5.7-17.4-13.5-22.2
								C824.5,70.1,819.1,68.5,813.5,68.5L813.5,68.5z" class="st1"></path>
						</g>
					</g>
				</g>
			</g>
		</g>
		<g>
			<g>
				<path d="M547.6,202.8c1.3-5.9,5.5-11.1,11.5-13.2l253.6-91.4c5.1-1.8,10.7-1.2,15.3,1.6c1.2,0.7,2.3,1.6,3.2,2.6
					l-0.5-6.1c-0.5-5.4-3.2-10.2-7.9-13.1c-4.5-2.9-10.1-3.5-15.3-1.6L553.9,173c-9.2,3.3-14.2,13.5-11,22.7
					C543.8,198.5,545.5,200.9,547.6,202.8z" class="st28"></path>
			</g>
		</g>
	</g>
	<g>
		<g>
			<path d="M759.2,499.9l189.4,137.7l88.9-81.7c15.9-14.6,14.8-40-2.4-52.5L852.9,370.9L759.2,499.9z" class="st27"></path>
		</g>
	</g>
	<g>
		<g>
			<g>
				<g>
					<g>
						<path d="M827.7,411.7c-1.2,0-2.5-0.4-3.5-1.1l-96.6-70.2c-1.3-0.9-2.1-2.3-2.4-3.9c-0.2-1.6,0.1-3.2,1.1-4.5
							l21.6-29.7c1.2-1.6,3-2.5,4.8-2.5c1.2,0,2.5,0.4,3.5,1.1l96.6,70.2c1.3,0.9,2.1,2.3,2.4,3.9c0.2,1.6-0.1,3.2-1.1,4.5
							l-21.6,29.7C831.3,410.8,829.5,411.7,827.7,411.7z" class="st27"></path>
					</g>
				</g>
				<g>
					<g>
						<path d="M752.7,305.8l96.6,70.2l-21.6,29.7l-96.6-70.2L752.7,305.8 M752.7,293.8c-0.6,0-1.2,0-1.9,0.1
							c-3.1,0.5-5.9,2.2-7.8,4.8l-21.6,29.7c-3.9,5.3-2.7,12.8,2.6,16.7l96.6,70.2c2.1,1.5,4.6,2.3,7,2.3c3.7,0,7.3-1.7,9.7-4.9
							l21.6-29.7c1.9-2.6,2.6-5.8,2.1-8.9c-0.5-3.1-2.2-5.9-4.8-7.8l-96.6-70.2C757.7,294.6,755.2,293.8,752.7,293.8L752.7,293.8z" class="st1"></path>
					</g>
				</g>
			</g>
		</g>
	</g>
	<g>
		<g class="st29">
			<g>
				<polygon points="802.9,514.3 933.9,446 966.2,467 835.4,537.9" class="st28"></polygon>
			</g>
		</g>
		<g class="st29">
			<g>
				<polygon points="853.6,551.2 984.6,482.8 998.1,493.9 867.3,561.2" class="st28"></polygon>
			</g>
		</g>
	</g>
	<g>
		<g>
			<g>
				<path d="M665.7,432L476.3,294.2l47-102.7c10.7-23.3,39.8-31.3,60.1-16.6l176,128L665.7,432z" class="st30"></path>
			</g>
		</g>
		<g>
			<g class="st29">
				<g>
					<polygon points="501.2,295 632.2,226.6 664.5,247.7 533.7,318.6" class="st28"></polygon>
				</g>
			</g>
			<g class="st29">
				<g>
					<polygon points="551.9,331.8 682.9,263.5 696.4,274.5 565.7,341.8" class="st28"></polygon>
				</g>
			</g>
		</g>
		<g>
			<g>
				<g>
					<g>
						<path d="M665.4,451.9c-4.2,0-8.1-1.3-11.5-3.7L464.5,310.5c-7.6-5.5-10.2-15.7-6.2-24.4l47.1-102.7
							c7.6-16.6,22-28.9,39.5-33.7c5.2-1.4,10.6-2.2,16-2.2c12.5,0,24.4,3.9,34.5,11.2l176,128c4.3,3.1,7.1,7.7,7.9,13
							c0.8,5.2-0.5,10.5-3.7,14.8l-93.8,129C677.9,448.8,671.8,451.9,665.4,451.9z M661.5,404.1l70.2-96.5l-160-116.3
							c-3.4-2.4-7.3-3.7-11.5-3.7c-1.8,0-3.6,0.2-5.4,0.7c-5.9,1.6-10.8,5.8-13.4,11.5l-40.2,87.8L661.5,404.1z" class="st31"></path>
					</g>
				</g>
				<g>
					<g>
						<path d="M560.8,153.6c11.1,0,21.9,3.4,31,10.1l176,128c6.2,4.5,7.4,13.2,2.9,19.5l-93.8,129
							c-2.8,3.8-7.1,5.9-11.4,5.9c-2.8,0-5.6-0.8-8-2.6L468,305.6c-5.3-3.8-7.1-11-4.3-17l47.1-102.7c6.9-15,19.8-26.1,35.6-30.4
							C551.1,154.2,556,153.6,560.8,153.6 M662.8,412.5L740,306.3L575.2,186.4c-4.4-3.2-9.7-4.9-15-4.9c-2.3,0-4.7,0.3-7,1
							c-7.6,2.1-13.9,7.5-17.3,14.7l-42.3,92.3L662.8,412.5 M560.8,141.6C560.8,141.6,560.8,141.6,560.8,141.6
							c-5.9,0-11.8,0.8-17.6,2.4c-19.2,5.3-35,18.7-43.3,37l-47.1,102.7c-5.1,11.2-1.7,24.5,8.2,31.7L650.4,453
							c4.4,3.2,9.6,4.9,15,4.9c8.3,0,16.2-4,21.1-10.8l93.8-129c8.4-11.6,6-27.9-5.5-36.2l-176-128
							C587.6,145.9,574.5,141.6,560.8,141.6L560.8,141.6z M508.6,285.5l38.2-83.3c1.9-4,5.3-7,9.6-8.2c1.3-0.3,2.5-0.5,3.8-0.5
							c2.9,0,5.7,0.9,8,2.6l155.2,112.8l-63.1,86.9L508.6,285.5L508.6,285.5z" class="st1"></path>
					</g>
				</g>
			</g>
		</g>
		<g>
			<g>
				<path d="M469.9,307l47.1-102.7c6.9-15,19.8-26.1,35.6-30.4c15.8-4.3,32.3-1.4,45.4,8.1l174.1,126.6
					c2.7-5.9,1-13.1-4.3-17l-176-128c-13.1-9.5-29.6-12.5-45.4-8.1c-15.8,4.3-28.8,15.4-35.6,30.4l-47.1,102.7
					c-2.8,6.1-1,13.2,4.3,17L469.9,307C469.9,307,469.9,307,469.9,307z" class="st28"></path>
			</g>
		</g>
	</g>
	<g>
		<g>
			<g>
				<g>
					<path d="M948.3,657.6c-4.2,0-8.2-1.3-11.5-3.7L747.4,516.1c-8.8-6.4-10.7-18.9-4.2-27.8l93.8-129
						c3.8-5.2,9.9-8.3,16.3-8.3c4.2,0,8.1,1.3,11.5,3.7l182.2,132.5c13,9.5,20.9,24.2,21.6,40.5c0.7,16.2-5.7,31.8-17.8,42.9
						l-88.9,81.7C958.2,655.7,953.3,657.6,948.3,657.6z M947.3,611.9l76.9-70.7c3.2-2.9,4.9-7,4.7-11.2c-0.2-4.2-2.2-8-5.5-10.4
						L857.1,398.8l-70.2,96.5L947.3,611.9z" class="st31"></path>
				</g>
			</g>
			<g>
				<g>
					<path d="M853.2,357c2.8,0,5.6,0.8,8,2.6L1043.4,492c11.5,8.4,18.5,21.5,19.2,35.9c0.7,14.4-5.1,28.4-15.8,38.2
						l-88.9,81.7c-2.7,2.5-6.1,3.7-9.5,3.7c-2.8,0-5.6-0.9-8-2.6L750.9,511.3c-6.2-4.5-7.4-13.2-2.9-19.5l93.8-129
						C844.6,359,848.9,357,853.2,357 M947.8,619.6l80.5-74c4.5-4.1,6.9-9.9,6.6-15.9c-0.3-6-3.2-11.5-8-15L855.8,390.4l-77.2,106.2
						L947.8,619.6 M853.2,345C853.2,345,853.2,345,853.2,345c-8.3,0-16.2,4-21.1,10.8l-93.8,129c-8.4,11.6-6,27.9,5.5,36.2
						l189.4,137.7c4.4,3.2,9.6,4.9,15,4.9c6.5,0,12.8-2.4,17.6-6.9l88.9-81.7c13.3-12.3,20.5-29.6,19.7-47.6
						c-0.8-18.1-9.6-34.5-24.1-45L868.2,349.9C863.9,346.7,858.7,345,853.2,345L853.2,345z M795.3,494l63.1-86.9l161.4,117.3
						c1.9,1.4,3,3.4,3.1,5.8c0.1,2.5-0.9,4.9-2.7,6.6l-73.3,67.3L795.3,494L795.3,494z" class="st1"></path>
				</g>
			</g>
		</g>
	</g>
	<g>
		<g>
			<path d="M750.9,511.3L750.9,511.3c0.3-0.3,0.4-0.7,0.7-1l93.8-129c4.6-6.3,13.3-7.8,19.4-3.3L1047,510.5
				c7,5.1,12.3,12,15.6,19.8c0-0.8,0.1-1.6,0-2.4c-0.6-14.4-7.6-27.5-19.2-35.9L861.2,359.5c-6.2-4.5-14.8-3-19.4,3.3l-93.8,129
				C743.5,498.1,744.7,506.8,750.9,511.3z" class="st28"></path>
		</g>
	</g>
</g>
<g>
	<g>
		<g>
			<g>
				<g>
					<g>
						<path d="M275,813.4c-1.5,0-2.9-0.5-4-1.5c-1.4-1.2-1.8-2.1-6.7-13.2c-12.5-28-45.8-102.2-87-152.7
							c-7.1-8.6-12.2-17.6-15.3-26.8c-0.5-1.5-0.4-3.1,0.3-4.6c20.5-41.3,50.2-78.6,85.9-107.9c1.1-0.9,2.4-1.4,3.8-1.4
							c1.2,0,2.4,0.4,3.5,1.1c2.2,1.6,3.1,4.4,2.1,7c-7,18.5-17.2,34-26.2,47.6c-21.8,33-21.7,38.2-11.7,50.4
							c19.9,24.4,52.2,66.5,93.1,128.3c1,1.6,1.7,2.6,2,3c1.4,1.9,1.6,4.5,0.4,6.6l-35,61.1c-0.9,1.6-2.5,2.7-4.2,2.9
							C275.7,813.3,275.3,813.4,275,813.4z" class="st32"></path>
					</g>
				</g>
				<g>
					<g>
						<path d="M252,511.3c-6.8,17.9-17,33.3-25.7,46.6c-20.7,31.4-24.5,41.1-11.2,57.3c49.7,61,94.5,130.6,95,131.1
							l-35,61.1c-2.3-2-41.4-101.9-93.1-165.2c-7-8.5-11.6-16.9-14.3-24.9C188.1,576.1,217.1,540,252,511.3 M252,499.3
							c-2.7,0-5.4,0.9-7.6,2.7c-36.3,29.9-66.6,67.9-87.5,109.9c-1.4,2.8-1.6,6.1-0.6,9.1c3.3,9.9,8.8,19.6,16.4,28.8
							c40.7,49.8,73.7,123.5,86.1,151.3c5.4,12.1,5.9,13.1,8.2,15.2c2.2,2,5.1,3.1,8,3.1c0.6,0,1.3,0,1.9-0.1
							c3.6-0.6,6.7-2.7,8.5-5.9l35-61.1c2.4-4.2,2-9.3-0.8-13.1c-0.3-0.4-0.9-1.4-1.8-2.8c-41-61.9-73.5-104.2-93.5-128.7
							c-7.2-8.8-9.2-11.2,11.9-43.2l0.1-0.1c8.7-13.2,19.6-29.7,26.9-48.8c1.9-5.1,0.2-10.8-4.2-14C256.9,500,254.5,499.3,252,499.3
							L252,499.3z M252,523.2L252,523.2L252,523.2L252,523.2z" class="st1"></path>
					</g>
				</g>
			</g>
		</g>
		<g>
			<g>
				<g>
					<g>
						<path d="M167.3,623.2c-2.4-0.2-4.5-1.7-5.3-4c-3.6-10.4-4.5-21.4-2.6-32.7c3.5-21.1,16.1-40.1,26.3-55.4
							c19.4-29.3,34.7-52.4,17.9-89.8c-6.8-15.1-14.5-18.4-20.4-19.5c-2.1-0.4-4.3-0.6-6.7-0.6c-35.4,0-92.6,43.2-113.3,62.9
							c-1.1,1.1-2.6,1.7-4.1,1.7c-0.9,0-1.7-0.2-2.5-0.6c-2.2-1.1-3.6-3.4-3.4-5.8l3.8-54.1c0.1-1.5,0.8-2.9,1.8-3.9l1.3-1.3
							c45.6-44.6,86.1-53.9,112-53.9c7.2,0,14.5,0.7,21.5,2.1c18.5,3.6,44,15.3,59.9,50.8c11.7,25.9,14.8,50.6,9.6,75.4
							c-1.3,6.4-3.2,12.9-5.5,19c-0.4,1-1,1.8-1.8,2.5c-34.4,28.3-63,64.2-82.8,104c-1,2-3.1,3.3-5.4,3.3
							C167.6,623.2,167.4,623.2,167.3,623.2z" class="st32"></path>
					</g>
				</g>
				<g>
					<g>
						<path d="M172.2,372c6.6,0,13.4,0.6,20.4,2c17.1,3.3,40.7,14.2,55.5,47.4c12.3,27.3,13.6,51,9.2,71.7
							c-1.3,6.4-3.1,12.4-5.2,18.1c-34.9,28.7-63.9,64.8-84.4,106c-3.6-10.3-3.9-20.2-2.3-29.7c3.3-19.6,15-37.4,25.4-53.1
							c19.6-29.7,36.5-55.3,18.4-95.5c-8-17.8-17.9-21.6-24.7-23c-2.5-0.5-5.1-0.7-7.8-0.7c-39,0-99,46.9-117.4,64.5l3.8-54.1
							C71.4,417.5,115.2,372,172.2,372 M172.2,360.1C172.2,360.1,172.2,360.1,172.2,360.1c-27.1,0-69.2,9.7-116.2,55.6l-1.3,1.3
							c-2.1,2.1-3.4,4.8-3.6,7.8l-3.8,54.1c-0.3,4.9,2.4,9.6,6.8,11.7c1.6,0.8,3.4,1.1,5.1,1.1c3,0,6-1.1,8.3-3.3
							c22.4-21.3,77.4-61.2,109.1-61.2c2,0,3.9,0.2,5.6,0.5c2.9,0.6,9.7,1.9,16.1,16.1c15.4,34.4,1.6,55.2-17.4,84
							c-10.5,15.8-23.5,35.4-27.2,57.8c-2.1,12.3-1.1,24.3,2.8,35.6c1.6,4.6,5.7,7.7,10.5,8c0.3,0,0.5,0,0.8,0
							c4.5,0,8.7-2.6,10.7-6.6c19.4-39,47.5-74.3,81.2-102c1.6-1.3,2.8-3,3.6-5c2.5-6.5,4.4-13.2,5.8-20.1c5.4-25.6,2-52.2-10-79
							c-16.9-37.9-44.3-50.4-64.2-54.2C187.4,360.8,179.7,360.1,172.2,360.1L172.2,360.1z" class="st1"></path>
					</g>
				</g>
			</g>
		</g>
	</g>
	<g>
		<g>
			<path d="M472.4,441.2c-173.7-9.8-323.5,121.7-335.7,295.8c-12,171.4,113.9,320.7,283.3,339
				c173.6,9.8,323.5-121.8,335.7-295.8C767.7,608.8,641.7,459.6,472.4,441.2z M439.8,971.8c-3.4-0.2-6.9-0.6-10.2-1
				c-0.2,0.1-0.4,0.1-0.7-0.1c-112-13.5-194.8-112.6-186.9-226.3c8.1-115.3,106.3-202.7,221-198c0.2-0.1,0.4,0,0.6,0
				c2-0.1,4,0.1,5.9,0.2c117.4,8.2,205.9,110.1,197.7,227.5C659,891.5,557.1,980,439.8,971.8z" class="st33"></path>
		</g>
	</g>
	<g>
		<g>
			<g>
				<g>
					<path d="M438,925.1c-3.9,0-7.9-0.1-11.8-0.4c-30.3-2.1-59.4-12.4-84.1-29.8l-0.6-0.4c-0.6-0.5-1.3-0.9-1.9-1.4
						c-46.9-34.1-72.4-88.9-68.4-146.7c4-57.9,37-108.6,88.1-135.8c0.7-0.4,1.3-0.8,2-1.1l0.5-0.2c23.6-12,49.8-18.3,75.9-18.3
						c3.9,0,7.8,0.1,11.7,0.4c44.5,3.1,85.2,23.4,114.4,57.1c29.3,33.7,43.7,76.8,40.6,121.3C598.4,856.8,525.3,925.1,438,925.1z" class="st34"></path>
				</g>
			</g>
			<g>
				<g>
					<path d="M437.7,596.9c3.8,0,7.5,0.1,11.3,0.4c88.8,6.2,155.6,83.3,149.4,172c-5.9,84.9-76.7,149.8-160.5,149.8
						c-3.8,0-7.6-0.1-11.4-0.4c-30.2-2.1-57.9-12.5-81.1-28.7c-0.7-0.5-1.5-1.1-2.3-1.7c-43.4-31.5-70.1-84.1-66.1-141.6
						c4-57.5,37.8-105.9,85.2-131.1c0.8-0.5,1.5-0.9,2.3-1.3C386.7,603.2,411.6,596.9,437.7,596.9 M437.7,584.9L437.7,584.9
						c-27.1,0-54.3,6.5-78.6,18.9c-0.1,0-0.1,0.1-0.2,0.1l-0.4,0.2c-0.6,0.3-1.4,0.7-2.3,1.3c-52.9,28.2-86.9,80.7-91.1,140.6
						c-4.2,59.8,22.2,116.5,70.7,151.8c0.8,0.7,1.6,1.2,2.1,1.6l0.5,0.3c0.1,0,0.1,0.1,0.2,0.1c25.6,18,55.7,28.6,87.1,30.8
						c4.1,0.3,8.2,0.4,12.2,0.4c43.7,0,85.5-16.4,117.6-46.3c32.3-30,51.8-70.7,54.8-114.7c3.2-46.1-11.7-90.7-42-125.6
						c-30.3-34.9-72.4-55.9-118.5-59.1C445.9,585,441.8,584.9,437.7,584.9L437.7,584.9z" class="st1"></path>
				</g>
			</g>
		</g>
	</g>
	<g>
		<g>
			<path d="M598.9,769.8c-6.2,88.2-82.7,155.6-170.8,149.5c-32.1-2.2-61.4-13.2-85.3-31.3
				c22.4,15.8,49.5,24.2,78.8,26.2c86.1,6,160.9-58.9,166.9-145.1c6-86.1-58.9-160.9-145.1-167c-29.4-2.1-56.7,1-81.2,13.5
				c26.2-14.7,56.7-20.6,88.9-18.3C539.3,603.6,605,681.8,598.9,769.8z" class="st32"></path>
		</g>
	</g>
	<g>
		<g>
			<g>
				<path d="M659.6,790.4l-445.9-31.2c-4.1-0.3-7.3-3.9-7-8l1.3-18.7c0.3-4.1,3.9-7.3,8-7l445.9,31.2
					c4.1,0.3,7.3,3.9,7,8l-1.3,18.7C667.3,787.6,663.7,790.7,659.6,790.4z" class="st28"></path>
				<path d="M660.1,796.4c-0.3,0-0.6,0-0.9,0l-445.9-31.2c-3.6-0.2-6.9-1.9-9.2-4.6c-2.4-2.7-3.5-6.2-3.3-9.8l1.3-18.7
					c0.2-3.6,1.9-6.9,4.6-9.2c2.7-2.4,6.2-3.5,9.8-3.3l445.9,31.2c7.4,0.5,13,7,12.5,14.4l-1.3,18.7
					C673,791,667.1,796.4,660.1,796.4z M660,784.5c0.7,0.1,1.6-0.6,1.6-1.4l1.3-18.7c0.1-0.8-0.6-1.6-1.4-1.6l-445.9-31.2
					c-0.5,0-0.9,0.2-1.1,0.4c-0.2,0.2-0.5,0.5-0.5,1l-1.3,18.7c0,0.5,0.2,0.9,0.4,1.1c0.2,0.2,0.5,0.5,1,0.5L660,784.5z" class="st1"></path>
			</g>
		</g>
		<g>
			<g>
				<path d="M616.2,622.3L281.9,919c-3.1,2.7-7.9,2.5-10.6-0.6l-12.5-14c-2.7-3.1-2.5-7.9,0.6-10.6L593.7,597
					c3.1-2.7,7.9-2.5,10.6,0.6l12.5,14C619.5,614.8,619.2,619.5,616.2,622.3z" class="st28"></path>
				<path d="M276.9,926.8c-0.3,0-0.5,0-0.8,0c-3.6-0.2-6.9-1.8-9.3-4.5l-12.5-14c-2.4-2.7-3.6-6.2-3.4-9.8
					c0.2-3.6,1.8-6.9,4.5-9.3l334.3-296.7c5.6-4.9,14.1-4.4,19,1.1l12.5,14c2.4,2.7,3.6,6.2,3.4,9.8c-0.2,3.6-1.8,6.9-4.5,9.3h0
					L285.8,923.4C283.4,925.6,280.2,926.8,276.9,926.8z M598.7,601.1c-0.4,0-0.7,0.1-1,0.4L263.4,898.2c-0.4,0.4-0.5,0.8-0.5,1
					s0,0.7,0.4,1.1l12.5,14c0.4,0.4,0.8,0.5,1,0.5c0.2,0,0.7,0,1.1-0.4l334.3-296.7c0.4-0.4,0.5-0.8,0.5-1c0-0.2,0-0.7-0.4-1.1
					l-12.5-14C599.6,601.3,599.1,601.1,598.7,601.1z" class="st1"></path>
			</g>
		</g>
		<g>
			<g>
				<path d="M280.1,598.8l289.7,340.3c2.7,3.1,7.4,3.5,10.6,0.8l14.3-12.2c3.1-2.7,3.5-7.4,0.8-10.6L305.8,576.9
					c-2.7-3.1-7.4-3.5-10.6-0.8l-14.3,12.2C277.8,590.9,277.4,595.6,280.1,598.8z" class="st28"></path>
				<path d="M575.6,947.7c-0.4,0-0.7,0-1.1,0c-3.6-0.3-6.9-2-9.2-4.7L275.5,602.6c-2.3-2.7-3.5-6.2-3.2-9.8
					c0.3-3.6,2-6.9,4.7-9.2l14.3-12.2c2.7-2.3,6.2-3.5,9.8-3.2c3.6,0.3,6.9,2,9.2,4.7l289.7,340.3c4.8,5.7,4.1,14.2-1.5,19
					l-14.3,12.2C581.8,946.6,578.8,947.7,575.6,947.7z M284.6,594.9l289.7,340.3c0.4,0.4,0.8,0.5,1,0.5c0.2,0,0.7,0,1.1-0.3
					l14.3-12.2c0.6-0.5,0.7-1.5,0.2-2.1L301.2,580.8c-0.4-0.4-0.8-0.5-1-0.5c-0.2,0-0.7,0-1.1,0.3l-14.3,12.2
					c-0.4,0.3-0.5,0.8-0.5,1C284.3,594,284.3,594.5,284.6,594.9L284.6,594.9z" class="st1"></path>
			</g>
		</g>
		<g>
			<g>
				<path d="M470.6,531.4l-31.9,455.5c-0.1,1.5-1.4,2.6-2.8,2.5l-28.4-2c-1.5-0.1-2.6-1.4-2.5-2.8L436.9,529
					c0.1-1.5,1.4-2.6,2.8-2.5l28.4,2C469.6,528.7,470.7,529.9,470.6,531.4z" class="st28"></path>
				<path d="M431.1,995c-0.3,0-0.7,0-1,0l-17.8-1.2c-7.7-0.5-13.5-7.2-13-14.9l31.1-444.9c0.3-3.7,2-7.1,4.8-9.6
					c2.8-2.5,6.5-3.7,10.1-3.4l17.7,1.2c7.7,0.5,13.5,7.2,13,14.9L445.1,982C444.6,989.4,438.4,995,431.1,995z M444.5,532.9
					c-0.6,0-1.1,0.3-1.3,0.5c-0.2,0.2-0.6,0.7-0.7,1.4l-31.1,444.9c0,0.7,0.3,1.2,0.5,1.4s0.7,0.6,1.4,0.7l17.8,1.2
					c0.7,0.1,1.2-0.3,1.4-0.5c0.2-0.2,0.6-0.7,0.7-1.4l31.1-444.9c0.1-1.1-0.8-2.1-1.9-2.1l-17.7-1.2
					C444.6,532.9,444.5,532.9,444.5,532.9z" class="st1"></path>
			</g>
		</g>
	</g>
	<g>
		<g>
			<path d="M512.1,763.3c-2.9,41.1-38.5,72.1-79.6,69.2c-41.1-2.9-72.1-38.5-69.2-79.6c2.9-41.1,38.5-72.1,79.6-69.2
				C484,686.6,514.9,722.2,512.1,763.3z" class="st28"></path>
			<path d="M437.8,838.7c-1.9,0-3.8-0.1-5.7-0.2c-21.5-1.5-41.1-11.3-55.2-27.5c-14.1-16.2-21.1-37-19.6-58.5
				c3.1-44.3,41.7-77.9,86-74.8c44.3,3.1,77.9,41.7,74.8,86l0,0c-1.5,21.5-11.3,41.1-27.5,55.2C475.7,831.8,457.2,838.7,437.8,838.7
				z M437.6,689.5c-35.7,0-65.9,27.7-68.4,63.8c-1.3,18.3,4.6,36,16.7,49.8c12,13.8,28.7,22.2,47,23.4c18.3,1.3,36-4.6,49.8-16.7
				c13.8-12,22.2-28.7,23.4-47l0,0c2.6-37.7-25.9-70.6-63.7-73.2C440.8,689.6,439.2,689.5,437.6,689.5z" class="st1"></path>
		</g>
	</g>
	<g>
		<g>
			<path d="M471.4,760.5c-1.3,18.5-17.3,32.4-35.8,31.1c-18.5-1.3-32.4-17.3-31.1-35.8c1.3-18.5,17.3-32.4,35.8-31.1
				C458.7,726,472.6,742,471.4,760.5z" class="st35"></path>
		</g>
	</g>
	<g>
		<g>
			<g>
				<g>
					<path d="M438.3,1082.6C438.3,1082.6,438.3,1082.6,438.3,1082.6c-6.1,0-12.3-0.2-18.4-0.5c-1.6,0-3.2-0.1-4.7-0.2
						c-35.9-2.5-70.6-10.8-103.3-24.7c-0.9-0.2-1.8-0.6-2.9-1.2c-126.2-54.5-204.6-183.3-195-320.6C125.3,573.7,255.6,444.1,417,434
						c6.8-0.5,13.8-0.7,20.9-0.7c7.4,0,14.9,0.3,22.5,0.8c4.3,0.3,8.5,0.7,12.7,1.2c83.5,9,159.4,49.6,213.5,114.2
						c54.3,64.8,81,146.9,75.1,231.2C749.9,949.9,607.8,1082.6,438.3,1082.6z M429.9,964.8c2.8,0.1,5.6,0.2,8.3,0.2
						c108.1,0,198.6-84.6,206.2-192.5c7.7-110.2-72-206.9-181.5-220.1c0,0,0,0,0,0c-0.2,0-0.5,0-0.7,0c-3.3-0.4-6.6-0.8-9.9-1
						c-4.9-0.3-9.8-0.5-14.7-0.5c-108.2,0-198.9,84.7-206.5,192.7c-6,85.7,42.5,167.3,120.7,202.9c10,4.6,20.2,8.3,30.4,11.1
						c13.3,3.7,27.1,6.1,41.1,7c1.5,0.1,3,0.2,4.4,0.2c0.3,0,1,0,1.1,0c0.3,0,0.5,0,0.8,0.1C429.7,964.8,429.8,964.8,429.9,964.8z" class="st27"></path>
				</g>
			</g>
			<g>
				<g>
					<path d="M438,439.3c7.3,0,14.7,0.3,22.1,0.8c4.2,0.3,8.3,0.7,12.4,1.2c169.3,18.3,295.3,167.5,283.3,339
						C744,948.2,604,1076.6,438.3,1076.6c-6,0-12.1-0.2-18.2-0.5c0,0,0,0,0,0c-1.5,0-3-0.1-4.4-0.2c-36.1-2.5-70.3-11-101.8-24.4
						c-0.7-0.2-1.5-0.5-2.2-0.9c-120.8-52-201.3-176.2-191.6-314.8C131.3,574.5,260.4,449.8,417.4,440
						C424.2,439.5,431,439.3,438,439.3 M427.8,970.8c0.4,0,0.7,0,1.1,0c0.2,0.1,0.3,0.1,0.5,0.1c0.1,0,0.2,0,0.3-0.1
						c2.9,0.1,5.7,0.2,8.6,0.2c110.9,0,204.3-85.8,212.2-198.1c8-113.8-74.9-213-186.8-226.4c-0.2,0-0.3-0.1-0.5-0.1
						c-0.1,0-0.1,0-0.2,0c-3.4-0.4-6.8-0.8-10.3-1c-5.1-0.4-10.1-0.5-15.1-0.5c-111,0-204.6,85.9-212.4,198.3
						c-6.4,91.1,45.6,173,124.2,208.8c10,4.6,20.5,8.4,31.3,11.4c13.5,3.8,27.7,6.2,42.3,7.2C424.6,970.7,426.2,970.8,427.8,970.8
						 M438,427.3c-7.2,0-14.5,0.3-21.4,0.8c-79.1,5-154.1,38.5-210.9,94.5c-57.3,56.5-92,131.9-97.6,212.4
						c-9.8,139.8,70,271,198.4,326.5c1.2,0.6,2.3,1,3.4,1.4c33.2,14,68.5,22.4,104.9,25c1.5,0.1,3.2,0.2,5,0.2
						c6.2,0.3,12.4,0.5,18.6,0.5c83.5,0,163.2-31.4,224.6-88.4c61.7-57.3,98.9-135.1,104.8-219.1c6-85.9-21.1-169.5-76.4-235.4
						c-55.1-65.8-132.4-107-217.5-116.3c-4.2-0.5-8.6-0.9-12.9-1.2C453.2,427.6,445.5,427.3,438,427.3L438,427.3z M427.8,958.8
						c-1.2,0-2.6-0.1-4-0.2c-13.6-1-27-3.3-39.9-6.8c-9.9-2.7-19.8-6.3-29.5-10.8c-76-34.6-123.1-113.8-117.3-197.1
						c7.3-105,95.4-187.2,200.5-187.2c4.7,0,9.5,0.2,14.3,0.5c3.2,0.2,6.4,0.5,9.6,1c0.3,0,0.7,0.1,1,0.1
						c106.2,12.9,183.5,106.7,176,213.7c-7.3,104.8-95.3,187-200.2,187c-2.7,0-5.4-0.1-8.1-0.2c0,0,0,0,0,0c-0.4,0-0.8-0.1-1.2-0.1
						c-0.1,0-0.3,0-0.4,0C428.2,958.8,428,958.8,427.8,958.8L427.8,958.8z" class="st1"></path>
				</g>
			</g>
		</g>
	</g>
	<g>
		<g>
			<path d="M755.7,780.3c-12.3,175.5-164.6,308-340.1,295.7c-4.2-0.3-2.1-0.2-6.1-0.7
				c173.6,9.8,317.3-122.2,329.4-296.3c12-171.5-114-320.7-283.3-339c1.5,0,3,0.1,4.5,0.2C635.6,452.6,768,604.7,755.7,780.3z" class="st31"></path>
		</g>
	</g>
	<g>
		<g>
			<path d="M257.3,493.1c50.2-33.7,110.5-53.2,174.7-53.9c-67.4,4.2-118.5,37.8-168.6,79.2
				c-34.9,28.7-63.9,64.8-84.4,106c-18.8,37.3-30.6,78.7-33.7,122.5c-9.7,138.6,59.2,257.2,179.9,309.2
				c-129.7-47.6-217.4-178.1-207.3-322.8c3.8-53.9,20.7-103.4,47.4-145.9C189,549.7,220.4,517.6,257.3,493.1z" class="st28"></path>
		</g>
	</g>
	<g>
		<g>
			<path d="M432.1,439.3c-0.2,1-0.1,0.6-0.1,0L432.1,439.3z" class="st36"></path>
		</g>
	</g>
</g>
</svg>
